<svg xmlns="http://www.w3.org/2000/svg" width="23.212" height="23.886" viewBox="0 0 23.212 23.886">
  <path id="Tracé_128" data-name="Tracé 128" d="M-100.305,386.079a6.385,6.385,0,0,0-.877-1.666,5.668,5.668,0,0,0-1.35-1.307,7.02,7.02,0,0,0-1.74-.872,6.583,6.583,0,0,0,2.6-2.215,5.437,5.437,0,0,0,1.016-3.174,4.6,4.6,0,0,0-.446-2.022,4.707,4.707,0,0,0-1.2-1.562,4.812,4.812,0,0,0-1.767-.94,5.515,5.515,0,0,0-2.157-.181l-3.59.377-1.809.19-6.346.667a6,6,0,0,0-2.032.579,6.19,6.19,0,0,0-1.656,1.173,5.55,5.55,0,0,0-1.127,1.61,4.506,4.506,0,0,0-.417,1.915,3.838,3.838,0,0,0,.334,1.625,3.462,3.462,0,0,0,.932,1.224,3.687,3.687,0,0,0,1.42.723,4.777,4.777,0,0,0,1.767.124,3.353,3.353,0,0,0,.932-.239,3.306,3.306,0,0,0,.807-.465,2.557,2.557,0,0,0,.571-.623,1.307,1.307,0,0,0,.223-.713,1.823,1.823,0,0,0-.223.037,1.993,1.993,0,0,1-.25.04,3.428,3.428,0,0,1-1.267-.092,2.78,2.78,0,0,1-1.044-.524,2.678,2.678,0,0,1-.71-.882,2.542,2.542,0,0,1-.264-1.168,3.132,3.132,0,0,1,.25-1.237,3.526,3.526,0,0,1,.7-1.058,3.817,3.817,0,0,1,1.03-.769,3.519,3.519,0,0,1,1.253-.371l3.757-.395-1.364,1.186a2.2,2.2,0,0,0-.4.55,1.37,1.37,0,0,0-.153.636v8.932l5.094-.535v-1.353a5.287,5.287,0,0,1,3.562,1.429,4.563,4.563,0,0,1,1.308,3.385,5.992,5.992,0,0,1-.446,2.315,6.169,6.169,0,0,1-1.21,1.888,6.387,6.387,0,0,1-1.8,1.33,6.334,6.334,0,0,1-2.2.64,4.632,4.632,0,0,1-1.572-.089,3.451,3.451,0,0,1-1.294-.6,3.2,3.2,0,0,1-.89-1.036,2.954,2.954,0,0,1-.334-1.434,4.681,4.681,0,0,1,.71-2.631,2.372,2.372,0,0,1,1.739-1.186,1.482,1.482,0,0,1,1.183.326,1.24,1.24,0,0,1,.459.965,1.028,1.028,0,0,1-.07.444q-.07.134-.153.312a.47.47,0,0,0,.334.485,1.385,1.385,0,0,0,.613.091,1.778,1.778,0,0,0,1.308-.686,2.164,2.164,0,0,0,.445-1.327,2.207,2.207,0,0,0-.376-1.3,2.611,2.611,0,0,0-.974-.84,4.261,4.261,0,0,0-1.364-.405,6.372,6.372,0,0,0-1.517-.024,5.683,5.683,0,0,0-2.115.63,5.5,5.5,0,0,0-1.614,1.3,5.84,5.84,0,0,0-1.03,1.768,5.959,5.959,0,0,0-.362,2.078,3.927,3.927,0,0,0,.7,2.333,5.16,5.16,0,0,0,1.823,1.581,7.947,7.947,0,0,0,2.547.815,11.08,11.08,0,0,0,2.839.067,14.818,14.818,0,0,0,4.119-.982,10.769,10.769,0,0,0,2.992-1.792,7.309,7.309,0,0,0,1.837-2.374,6.337,6.337,0,0,0,.627-2.753A5.847,5.847,0,0,0-100.305,386.079Zm-5.191-7.108a4.926,4.926,0,0,1-.849,1.412,5.545,5.545,0,0,1-1.267,1.09,5.169,5.169,0,0,1-1.558.656l-.64.067v-8.639l.334-.035a4.135,4.135,0,0,1,1.67.2,4.043,4.043,0,0,1,1.364.785,3.694,3.694,0,0,1,.918,1.24,3.771,3.771,0,0,1,.334,1.6A4.389,4.389,0,0,1-105.5,378.971Z" transform="translate(123.197 -372.104)" fill="#fff"/>
</svg>
