<svg xmlns="http://www.w3.org/2000/svg" xmlns:xlink="http://www.w3.org/1999/xlink" width="100.327" height="100.329" viewBox="0 0 100.327 100.329">
  <defs>
    <clipPath id="clip-path">
      <rect id="Rectangle_6" data-name="Rectangle 6" width="62.354" height="33.876" fill="#c78634"/>
    </clipPath>
    <clipPath id="clip-path-2">
      <rect id="Rectangle_26" data-name="Rectangle 26" width="100.327" height="100.329" fill="#c78634"/>
    </clipPath>
  </defs>
  <g id="Groupe_36" data-name="Groupe 36" transform="translate(-1679.122 -882.125)">
    <g id="MENU" transform="translate(1698.108 915.351)">
      <g id="BUFFALO_LOGO" data-name="BUFFALO LOGO">
        <g id="Groupe_6" data-name="Groupe 6" clip-path="url(#clip-path)">
          <path id="Tracé_10" data-name="Tracé 10" d="M101.538,134.76a16.686,16.686,0,0,1-9.882-3.214,8.138,8.138,0,0,1-.892.424,17.642,17.642,0,0,0,21.548,0,8.08,8.08,0,0,1-.892-.424,16.684,16.684,0,0,1-9.881,3.214" transform="translate(-70.36 -101.766)" fill="#c78634"/>
          <path id="Tracé_11" data-name="Tracé 11" d="M62.362,16.292a16.5,16.5,0,0,1,32.932,0c.311.424.606.821.879,1.177.006-.176.014-.352.014-.53a17.364,17.364,0,0,0-34.718,0c0,.178.008.354.014.53.273-.356.569-.753.879-1.177" transform="translate(-47.651 -0.001)" fill="#c78634"/>
          <path id="Tracé_12" data-name="Tracé 12" d="M118.61,123.078c3.216,0,5.823-.565,5.823-1.263s-2.607-1.263-5.823-1.263-5.823.566-5.823,1.263,2.607,1.263,5.823,1.263" transform="translate(-87.433 -93.261)" fill="#c78634"/>
          <path id="Tracé_13" data-name="Tracé 13" d="M111.674,65.089c-.024-.07-.594-1.7-1.838-1.7a1.1,1.1,0,1,0-.009,2.2c.687.016,1.478.016,1.486.016h.534Z" transform="translate(-84.28 -49.035)" fill="#c78634"/>
          <path id="Tracé_14" data-name="Tracé 14" d="M157.877,64.483a1.109,1.109,0,0,0-1.116-1.1c-1.244,0-1.814,1.635-1.838,1.7l-.173.509h.534c.008,0,.8,0,1.485-.016a1.109,1.109,0,0,0,1.107-1.1" transform="translate(-119.963 -49.035)" fill="#c78634"/>
          <path id="Tracé_15" data-name="Tracé 15" d="M24.593,37.139A5.73,5.73,0,0,1,23.476,33.6a4.939,4.939,0,0,1,.965-2.51,3.2,3.2,0,0,1-1.034-3.3c1.018-3.361,4.447-2.056,6.272-3.822a2.993,2.993,0,0,0,.979-2.208,3.077,3.077,0,0,0-3.114-3.038,3.367,3.367,0,0,0-1.466.411c-3.939,1.793-10.563,12.933-12.731,14.931-2.35,2.166-7.9,2.074-9.59-2.329-2.4-6.253,5.88-10.091,5.88-10.091a9.616,9.616,0,0,0-9.265,7c-2.136,6.894,5.244,14.4,13.35,10.861.983-.429,3.291-1.412,3.291-1.412a5.312,5.312,0,0,0-2.162,3.178,3.95,3.95,0,0,0,.282,2.568s7.709,1.835,9.459-6.7" transform="translate(0 -14.477)" fill="#c78634"/>
          <path id="Tracé_16" data-name="Tracé 16" d="M171.283,28.641a9.616,9.616,0,0,0-9.265-7s8.284,3.838,5.88,10.091c-1.692,4.4-7.239,4.495-9.59,2.329-2.169-2-8.792-13.138-12.731-14.931a3.366,3.366,0,0,0-1.466-.411A3.077,3.077,0,0,0,141,21.752a2.994,2.994,0,0,0,.979,2.208c1.825,1.766,5.254.461,6.272,3.822a3.2,3.2,0,0,1-1.034,3.3,4.937,4.937,0,0,1,.965,2.51,5.729,5.729,0,0,1-1.117,3.544c1.75,8.531,9.459,6.7,9.459,6.7a3.95,3.95,0,0,0,.282-2.569,5.313,5.313,0,0,0-2.162-3.178s2.308.983,3.29,1.412c8.106,3.537,15.487-3.967,13.35-10.861" transform="translate(-109.302 -14.477)" fill="#c78634"/>
          <path id="Tracé_17" data-name="Tracé 17" d="M128.016,50.041a1.81,1.81,0,0,0-1.436-1.433.52.52,0,0,1-.461-.494c-.328-3.119-.341-3.119-.341-3.119H124.55s-.012,0-.341,3.119a.519.519,0,0,1-.461.494,1.811,1.811,0,0,0-1.436,1.433,4.08,4.08,0,0,0-.125.458c-.352,1.651-.94,4.128-.94,4.128a3.619,3.619,0,0,1,3.921.6,3.6,3.6,0,0,1,3.913-.6s-.587-2.477-.94-4.128a3.983,3.983,0,0,0-.125-.458m-2.848,4.171s0,.071,0,.175c0-.086,0-.175,0-.175m0,.343v.14c0-.068,0-.128,0-.14" transform="translate(-93.991 -34.808)" fill="#c78634"/>
          <path id="Tracé_18" data-name="Tracé 18" d="M122.246,92.738a1.473,1.473,0,0,0-.94-2.746,4.4,4.4,0,0,0-2.227,1.185v0a4.411,4.411,0,0,0-2.229-1.187,1.473,1.473,0,0,0-.94,2.746c.94.4,1.41.275,1.692.917a1.135,1.135,0,0,1-1.1,1.535,1.152,1.152,0,0,1-1.161-1.076c-.282-1.559-.911-1.483-.911-1.483l-1.043,4.235a19.687,19.687,0,0,1,5.643-.825h.009c.027,0,.051,0,.08,0a19.682,19.682,0,0,1,5.643.826l-1.023-4.239s-.649-.073-.931,1.486a1.152,1.152,0,0,1-1.161,1.076,1.135,1.135,0,0,1-1.1-1.535c.282-.642.752-.517,1.692-.918" transform="translate(-87.9 -69.614)" fill="#c78634"/>
        </g>
      </g>
    </g>
    <g id="Groupe_35" data-name="Groupe 35" transform="translate(1779.448 982.453) rotate(180)">
      <path id="Tracé_27" data-name="Tracé 27" d="M.223,199.847l4.76.287L.034,202.985,0,203.553l5.668.341.034-.568-4.768-.287,4.957-2.851.034-.568-5.668-.341Z" transform="translate(0 -154.307)" fill="#c78634"/>
      <path id="Tracé_28" data-name="Tracé 28" d="M2.565,174.86l3.107,2.386,2.177.378-.1.56-2.177-.378-3.732,1.215.11-.632,3.158-.953-2.654-1.953Z" transform="translate(-1.427 -135.399)" fill="#c78634"/>
      <path id="Tracé_29" data-name="Tracé 29" d="M13.343,157.984l-.718,2.482,1.158.851-.167.578-4.809-3.548.178-.617,5.958-.425-.167.577Zm-.5.033-3.262.224,2.639,1.93Z" transform="translate(-6.82 -121.806)" fill="#c78634"/>
      <path id="Tracé_30" data-name="Tracé 30" d="M14.828,130.8l.436.178-.6,1.459,4.822,1.967-.215.526-4.821-1.967-.6,1.467-.436-.178Z" transform="translate(-10.391 -101.285)" fill="#c78634"/>
      <path id="Tracé_31" data-name="Tracé 31" d="M24.308,108.638l5,2.7-.271.5L26.7,110.575l-1.463,2.709,2.337,1.263-.27.5-5-2.7.27-.5,2.244,1.213,1.464-2.709-2.245-1.213Z" transform="translate(-17.271 -84.122)" fill="#c78634"/>
      <rect id="Rectangle_18" data-name="Rectangle 18" width="0.569" height="5.679" transform="translate(7.973 23.089) rotate(-56.936)" fill="#c78634"/>
      <rect id="Rectangle_19" data-name="Rectangle 19" width="0.569" height="5.679" transform="translate(10.632 19.343) rotate(-51.698)" fill="#c78634"/>
      <path id="Tracé_32" data-name="Tracé 32" d="M57.464,59.986l4.047,3.878-.393.411-3.232-3.1,1.849,4.54-.287.3-4.6-1.643,3.22,3.086-.393.411-4.047-3.878.416-.434,5.009,1.795-2.007-4.928Z" transform="translate(-41.523 -46.449)" fill="#c78634"/>
      <path id="Tracé_33" data-name="Tracé 33" d="M80.169,42.516,83.7,46.961l-.445.354L81.6,45.236l-2.411,1.916,1.653,2.08-.445.354-3.533-4.446.445-.354,1.587,2,2.411-1.915-1.587-2Z" transform="translate(-59.521 -32.921)" fill="#c78634"/>
      <path id="Tracé_34" data-name="Tracé 34" d="M98.849,32.6l1.137,1.79,1.817-1.154.253.4-1.817,1.154,1.154,1.818,2.023-1.285.253.4-2.5,1.59-3.049-4.8,2.5-1.59.253.4Z" transform="translate(-75.974 -23.941)" fill="#c78634"/>
      <path id="Tracé_35" data-name="Tracé 35" d="M121.825,23.966l-.51.252-4.935-2.889,2.117,4.283-.51.252-2.516-5.091.51-.252,4.932,2.882L118.8,19.128l.51-.252Z" transform="translate(-89.412 -14.616)" fill="#c78634"/>
      <path id="Tracé_36" data-name="Tracé 36" d="M142.03,10.152l-.534,3.881.75,2.078-.535.193-.75-2.078-2.9-2.64.6-.218,2.392,2.272.382-3.273Z" transform="translate(-106.901 -7.861)" fill="#c78634"/>
      <g id="Groupe_34" data-name="Groupe 34">
        <g id="Groupe_33" data-name="Groupe 33" clip-path="url(#clip-path-2)">
          <path id="Tracé_37" data-name="Tracé 37" d="M161.882,5.027l.835,3.476a1.717,1.717,0,0,0,.683,1.123,1.478,1.478,0,0,0,1.165.138,1.461,1.461,0,0,0,.969-.646,1.736,1.736,0,0,0,.09-1.313l-.835-3.476.553-.133.833,3.468A2.14,2.14,0,0,1,166,9.377a2.313,2.313,0,0,1-2.9.7,2.138,2.138,0,0,1-.937-1.446l-.833-3.468Z" transform="translate(-124.922 -3.248)" fill="#c78634"/>
          <path id="Tracé_38" data-name="Tracé 38" d="M198.71,11.777a.894.894,0,0,1-.337-.634.936.936,0,1,1,.337.634" transform="translate(-153.602 -7.831)" fill="#c78634"/>
          <path id="Tracé_39" data-name="Tracé 39" d="M226.868,5.881l-.568-.028L223.393.928,223.16,5.7l-.568-.028L222.869,0l.568.028,2.907,4.917.233-4.763.568.028Z" transform="translate(-172.359 0)" fill="#c78634"/>
          <path id="Tracé_40" data-name="Tracé 40" d="M252.929,2.237,250.578,5.37l-.353,2.181-.561-.091.353-2.181-1.258-3.718.633.1.988,3.147L252.3,2.135Z" transform="translate(-192.621 -1.209)" fill="#c78634"/>
          <path id="Tracé_41" data-name="Tracé 41" d="M268.647,12.7l-2.49-.689-.837,1.168-.58-.16,3.492-4.85.619.171.493,5.953-.58-.16Zm-.039-.5-.261-3.259-1.9,2.66Z" transform="translate(-204.996 -6.323)" fill="#c78634"/>
          <path id="Tracé_42" data-name="Tracé 42" d="M297.46,13.968l-.173.438-1.466-.579-1.912,4.844-.529-.209,1.912-4.844-1.473-.582.173-.438Z" transform="translate(-227.172 -9.756)" fill="#c78634"/>
          <path id="Tracé_43" data-name="Tracé 43" d="M311.883,23.205l-2.642,5.027-.5-.264,1.236-2.352-2.725-1.433-1.236,2.352-.5-.265,2.642-5.026.5.264-1.187,2.258,2.725,1.433,1.187-2.258Z" transform="translate(-236.564 -16.449)" fill="#c78634"/>
          <rect id="Rectangle_20" data-name="Rectangle 20" width="5.679" height="0.569" transform="translate(73.716 12.471) rotate(-57.582)" fill="#c78634"/>
          <rect id="Rectangle_21" data-name="Rectangle 21" width="5.679" height="0.569" transform="matrix(0.611, -0.792, 0.792, 0.611, 77.061, 14.785)" fill="#c78634"/>
          <path id="Tracé_44" data-name="Tracé 44" d="M355.808,55.822l-3.833,4.091-.415-.389,3.061-3.267-4.519,1.9-.3-.283,1.591-4.622-3.049,3.255-.415-.389,3.833-4.091.439.411-1.739,5.028,4.9-2.063Z" transform="translate(-269.409 -40.287)" fill="#c78634"/>
          <path id="Tracé_45" data-name="Tracé 45" d="M376.3,78.258l-4.405,3.583-.359-.441,2.061-1.676-1.943-2.389-2.061,1.677-.359-.441,4.406-3.583.359.441-1.979,1.61,1.943,2.389,1.979-1.61Z" transform="translate(-285.907 -58.065)" fill="#c78634"/>
          <path id="Tracé_46" data-name="Tracé 46" d="M388.741,96.793l-1.777,1.157,1.175,1.8-.395.257-1.175-1.8-1.8,1.175,1.308,2.008-.395.257-1.618-2.485,4.766-3.1,1.618,2.485-.395.257Z" transform="translate(-297.388 -74.382)" fill="#c78634"/>
          <path id="Tracé_47" data-name="Tracé 47" d="M395.567,119.684l-.258-.507,2.833-4.968-4.258,2.166-.258-.507,5.062-2.574.258.507-2.825,4.964,4.251-2.162.258.507Z" transform="translate(-304.795 -87.726)" fill="#c78634"/>
          <path id="Tracé_48" data-name="Tracé 48" d="M412.522,139.709l-3.887-.49-2.07.774-.2-.533,2.07-.774,2.606-2.935.225.6-2.245,2.418,3.277.344Z" transform="translate(-314.661 -105.117)" fill="#c78634"/>
          <path id="Tracé_49" data-name="Tracé 49" d="M417.908,159.512l-3.466.875a1.715,1.715,0,0,0-1.115.7,1.479,1.479,0,0,0-.125,1.167,1.459,1.459,0,0,0,.657.961,1.734,1.734,0,0,0,1.313.075l3.466-.874.139.551-3.458.872a2.139,2.139,0,0,1-1.716-.158,2.313,2.313,0,0,1-.729-2.891,2.138,2.138,0,0,1,1.435-.953l3.458-.872Z" transform="translate(-319.511 -123.088)" fill="#c78634"/>
          <path id="Tracé_50" data-name="Tracé 50" d="M426.1,196.382a.893.893,0,0,1,.63-.344.936.936,0,1,1-.63.344" transform="translate(-329.783 -151.793)" fill="#c78634"/>
          <path id="Tracé_51" data-name="Tracé 51" d="M418.71,224.651l.021-.568,4.892-2.962-4.774-.179.021-.568,5.675.213-.021.568-4.884,2.963,4.766.179-.021.568Z" transform="translate(-324.219 -170.641)" fill="#c78634"/>
          <path id="Tracé_52" data-name="Tracé 52" d="M422.169,250.455l-3.16-2.315-2.185-.328.084-.562,2.185.328,3.7-1.3-.1.635-3.136,1.024,2.7,1.892Z" transform="translate(-322.758 -190.699)" fill="#c78634"/>
          <path id="Tracé_53" data-name="Tracé 53" d="M411.55,266.478l.661-2.5-1.177-.824.154-.582,4.889,3.437-.164.62-5.947.561.154-.581Zm.5-.044,3.256-.3-2.682-1.869Z" transform="translate(-317.448 -203.319)" fill="#c78634"/>
          <path id="Tracé_54" data-name="Tracé 54" d="M410.632,295.332l-.44-.168.562-1.473-4.866-1.856.2-.531,4.866,1.856.565-1.48.44.168Z" transform="translate(-314.291 -225.565)" fill="#c78634"/>
          <path id="Tracé_55" data-name="Tracé 55" d="M398.536,309.846l-5.056-2.585.259-.506,2.365,1.209,1.4-2.741-2.365-1.21.259-.506,5.056,2.585-.259.506-2.271-1.161-1.4,2.741,2.271,1.161Z" transform="translate(-304.682 -235.014)" fill="#c78634"/>
          <rect id="Rectangle_22" data-name="Rectangle 22" width="0.569" height="5.679" transform="matrix(0.526, -0.85, 0.85, 0.526, 87.823, 73.775)" fill="#c78634"/>
          <rect id="Rectangle_23" data-name="Rectangle 23" width="0.569" height="5.679" transform="matrix(0.602, -0.799, 0.799, 0.602, 85.5, 77.122)" fill="#c78634"/>
          <path id="Tracé_56" data-name="Tracé 56" d="M363.369,354.089l-4.134-3.786.384-.42,3.3,3.023-1.952-4.5.28-.306,4.639,1.538L362.6,346.63l.384-.419L367.117,350l-.406.443-5.048-1.681,2.118,4.881Z" transform="translate(-278.166 -268.081)" fill="#c78634"/>
          <path id="Tracé_57" data-name="Tracé 57" d="M344.618,374.837l-3.633-4.365.437-.364,1.7,2.042,2.367-1.97-1.7-2.042.437-.364,3.632,4.365-.437.364-1.632-1.961-2.367,1.969,1.632,1.961Z" transform="translate(-264.035 -284.779)" fill="#c78634"/>
          <path id="Tracé_58" data-name="Tracé 58" d="M330.551,387.454l-1.177-1.764-1.791,1.195-.262-.392,1.791-1.2-1.2-1.791-1.993,1.33-.262-.392,2.467-1.646,3.157,4.73-2.466,1.646-.262-.392Z" transform="translate(-252.169 -296.413)" fill="#c78634"/>
          <path id="Tracé_59" data-name="Tracé 59" d="M304.994,394.521l.5-.264,5,2.776-2.214-4.233.5-.264,2.632,5.032-.5.264-5-2.769,2.21,4.226-.5.264Z" transform="translate(-236.165 -303.953)" fill="#c78634"/>
          <path id="Tracé_60" data-name="Tracé 60" d="M292.471,411.748l.445-3.892-.8-2.061.53-.205.8,2.061,2.964,2.572-.6.232-2.443-2.217-.307,3.281Z" transform="translate(-226.195 -314.06)" fill="#c78634"/>
          <path id="Tracé_61" data-name="Tracé 61" d="M270.285,417.32l-.914-3.456a1.714,1.714,0,0,0-.709-1.107,1.48,1.48,0,0,0-1.168-.111,1.462,1.462,0,0,0-.954.668,1.736,1.736,0,0,0-.06,1.314l.914,3.456-.55.145-.912-3.448a2.14,2.14,0,0,1,.138-1.717,2.313,2.313,0,0,1,2.883-.763,2.139,2.139,0,0,1,.969,1.424l.912,3.448Z" transform="translate(-205.833 -319.076)" fill="#c78634"/>
          <path id="Tracé_62" data-name="Tracé 62" d="M244.072,425.869a.894.894,0,0,1,.351.626.936.936,0,1,1-.351-.626" transform="translate(-187.814 -329.607)" fill="#c78634"/>
          <path id="Tracé_63" data-name="Tracé 63" d="M206.93,418.92l.568.015,3.016,4.859.127-4.775.568.015-.151,5.677-.568-.015-3.017-4.851-.126,4.767-.568-.015Z" transform="translate(-160.115 -324.381)" fill="#c78634"/>
          <path id="Tracé_64" data-name="Tracé 64" d="M182.248,422.562l2.279-3.186.3-2.189.563.078-.3,2.189,1.342,3.688-.636-.088-1.06-3.124-1.861,2.719Z" transform="translate(-141.12 -323.04)" fill="#c78634"/>
          <path id="Tracé_65" data-name="Tracé 65" d="M164.406,412.253l2.5.632.81-1.186.583.147-3.38,4.929-.622-.157-.629-5.94.583.147Zm.05.5.336,3.252,1.838-2.7Z" transform="translate(-126.737 -317.999)" fill="#c78634"/>
          <path id="Tracé_66" data-name="Tracé 66" d="M137.727,411.5l.163-.442,1.479.545,1.8-4.886.534.2-1.8,4.886,1.486.548-.163.442Z" transform="translate(-106.646 -314.929)" fill="#c78634"/>
          <path id="Tracé_67" data-name="Tracé 67" d="M115.176,399.7l2.527-5.086.509.253-1.182,2.379,2.757,1.37,1.182-2.379.509.253-2.527,5.085-.509-.253,1.135-2.284-2.757-1.37-1.135,2.284Z" transform="translate(-89.184 -305.56)" fill="#c78634"/>
          <rect id="Rectangle_24" data-name="Rectangle 24" width="5.679" height="0.569" transform="matrix(0.517, -0.856, 0.856, 0.517, 24.047, 92.959)" fill="#c78634"/>
          <rect id="Rectangle_25" data-name="Rectangle 25" width="5.679" height="0.569" transform="matrix(0.593, -0.805, 0.805, 0.593, 20.245, 90.388)" fill="#c78634"/>
          <path id="Tracé_68" data-name="Tracé 68" d="M65.2,365.033l3.739-4.176.424.379L66.38,364.57l4.475-2,.309.276L69.678,367.5l2.975-3.323.424.38-3.739,4.176-.448-.4,1.625-5.066-4.857,2.173Z" transform="translate(-50.489 -279.421)" fill="#c78634"/>
          <path id="Tracé_69" data-name="Tracé 69" d="M47.053,346.493l4.323-3.682.369.433-2.022,1.722,2,2.344,2.022-1.723.369.433L49.787,349.7l-.369-.433,1.942-1.654-2-2.344-1.942,1.654Z" transform="translate(-36.435 -265.448)" fill="#c78634"/>
          <path id="Tracé_70" data-name="Tracé 70" d="M36.594,332.5l1.75-1.2-1.215-1.777.389-.266,1.215,1.777,1.777-1.215-1.353-1.978.389-.266,1.674,2.448-4.694,3.21-1.674-2.448.389-.266Z" transform="translate(-26.987 -253.655)" fill="#c78634"/>
          <path id="Tracé_71" data-name="Tracé 71" d="M27.027,307.049l.269.5-2.719,5.031,4.207-2.262.269.5-5,2.689-.269-.5L26.5,307.98l-4.2,2.258-.269-.5Z" transform="translate(-17.055 -237.757)" fill="#c78634"/>
          <path id="Tracé_72" data-name="Tracé 72" d="M12.515,294.657l3.9.4,2.051-.821.211.528-2.052.821-2.538,2.994-.239-.6,2.189-2.468-3.284-.27Z" transform="translate(-9.69 -227.836)" fill="#c78634"/>
          <path id="Tracé_73" data-name="Tracé 73" d="M6.7,272.611l3.445-.954a1.715,1.715,0,0,0,1.1-.721,1.478,1.478,0,0,0,.1-1.169,1.461,1.461,0,0,0-.679-.946,1.737,1.737,0,0,0-1.315-.045l-3.445.954-.152-.548,3.437-.952a2.14,2.14,0,0,1,1.719.118,2.314,2.314,0,0,1,.8,2.874,2.141,2.141,0,0,1-1.413.986l-3.437.952Z" transform="translate(-4.454 -207.605)" fill="#c78634"/>
          <path id="Tracé_74" data-name="Tracé 74" d="M12.549,246.465a.894.894,0,0,1-.621.358.936.936,0,1,1,.621-.358" transform="translate(-8.413 -189.674)" fill="#c78634"/>
        </g>
      </g>
    </g>
  </g>
</svg>
