<svg xmlns="http://www.w3.org/2000/svg" width="55.819" height="55.822" viewBox="0 0 55.819 55.822">
  <g id="Groupe_46" data-name="Groupe 46" transform="translate(-276.67 -400.627)">
    <path id="Path_27" data-name="Path 27" d="M318.567,423.695l-2.649-.16,2.753-1.587.019-.316-3.154-.189-.019.316,2.653.159-2.757,1.587-.019.316,3.153.19Z" transform="translate(13.799 7.418)" fill="#bd7020"/>
    <path id="Path_28" data-name="Path 28" d="M318.129,426.2l-1.728-1.326-1.211-.21.056-.312,1.211.21,2.077-.677-.061.353-1.758.53,1.477,1.086Z" transform="translate(13.726 8.289)" fill="#bd7020"/>
    <path id="Path_29" data-name="Path 29" d="M315.382,427.515l.4-1.381-.644-.473.092-.321,2.676,1.974-.1.343-3.315.237.094-.321Zm.279-.018,1.815-.125-1.469-1.074Z" transform="translate(13.478 8.806)" fill="#bd7020"/>
    <path id="Path_30" data-name="Path 30" d="M316.685,430.28l-.243-.1.334-.811-2.683-1.095.121-.293,2.681,1.095.334-.816.243.1Z" transform="translate(13.336 9.748)" fill="#bd7020"/>
    <path id="Path_31" data-name="Path 31" d="M315.669,432.664l-2.782-1.5.151-.278,1.3.7.815-1.507-1.3-.7L314,429.1l2.782,1.5-.151.279-1.249-.676-.814,1.507,1.249.676Z" transform="translate(12.906 10.145)" fill="#bd7020"/>
    <rect id="Rectangle_18" data-name="Rectangle 18" width="0.317" height="3.16" transform="translate(325.233 442.145) rotate(-56.936)" fill="#bd7020"/>
    <rect id="Rectangle_19" data-name="Rectangle 19" width="0.317" height="3.16" transform="matrix(0.62, -0.785, 0.785, 0.62, 323.898, 443.977)" fill="#bd7020"/>
    <path id="Path_32" data-name="Path 32" d="M311.877,437.383l-2.252-2.158.218-.229,1.8,1.725-1.028-2.527.159-.167,2.559.914-1.792-1.717.22-.228,2.252,2.158-.232.241-2.787-1,1.118,2.742Z" transform="translate(11.743 11.535)" fill="#bd7020"/>
    <path id="Path_33" data-name="Path 33" d="M309.87,438.882l-1.964-2.474.247-.2.921,1.157,1.341-1.066-.92-1.157.248-.2,1.965,2.474-.248.2-.882-1.112-1.343,1.066.883,1.112Z" transform="translate(11.131 12.23)" fill="#bd7020"/>
    <path id="Path_34" data-name="Path 34" d="M309.146,438.92l-.633-1-1.01.643-.141-.222,1.012-.643-.643-1.012-1.126.716-.14-.224,1.39-.884,1.7,2.671-1.392.884-.14-.223Z" transform="translate(10.617 12.711)" fill="#bd7020"/>
    <path id="Path_35" data-name="Path 35" d="M304.528,438.226l.283-.14,2.747,1.607-1.179-2.383.285-.141,1.4,2.833-.285.14-2.744-1.6,1.176,2.379-.283.14Z" transform="translate(9.927 13.021)" fill="#bd7020"/>
    <path id="Path_36" data-name="Path 36" d="M303.445,441.743l.3-2.159-.416-1.157.3-.107.418,1.157,1.613,1.468-.334.122-1.331-1.264-.213,1.82Z" transform="translate(9.499 13.432)" fill="#bd7020"/>
    <g id="Group_33" data-name="Group 33" transform="translate(276.67 400.627)">
      <path id="Path_37" data-name="Path 37" d="M303.306,441.828l-.464-1.934a.957.957,0,0,0-.381-.625.821.821,0,0,0-.648-.076.809.809,0,0,0-.539.359.96.96,0,0,0-.05.73l.465,1.934-.308.075-.464-1.93a1.2,1.2,0,0,1,.1-.953,1.287,1.287,0,0,1,1.613-.389,1.187,1.187,0,0,1,.522.8l.463,1.93Z" transform="translate(-268.05 -386.995)" fill="#bd7020"/>
      <path id="Path_38" data-name="Path 38" d="M299.545,440.2a.5.5,0,0,1,.187.353.521.521,0,1,1-.187-.353" transform="translate(-268.822 -386.569)" fill="#bd7020"/>
      <path id="Path_39" data-name="Path 39" d="M295.5,439.371l.316.016,1.618,2.74.129-2.656.316.016-.153,3.155-.316-.015-1.618-2.736-.129,2.65-.316-.016Z" transform="translate(-270.013 -386.821)" fill="#bd7020"/>
      <path id="Path_40" data-name="Path 40" d="M293.086,442.139l1.307-1.743.2-1.214.312.05-.2,1.214.7,2.068-.353-.056-.549-1.751-1.067,1.488Z" transform="translate(-270.82 -386.888)" fill="#bd7020"/>
      <path id="Path_41" data-name="Path 41" d="M291.816,439.4l1.386.382.465-.65.323.089-1.944,2.7-.343-.095-.275-3.312.323.089Zm.022.278.145,1.813,1.058-1.481Z" transform="translate(-271.411 -387.126)" fill="#bd7020"/>
      <path id="Path_42" data-name="Path 42" d="M288.992,440.744l.1-.244.815.323,1.063-2.7.294.117-1.063,2.7.819.324-.1.244Z" transform="translate(-272.279 -387.264)" fill="#bd7020"/>
      <path id="Path_43" data-name="Path 43" d="M286.928,439.747l1.47-2.8.278.146-.688,1.309,1.516.8.688-1.309.278.148-1.47,2.8-.278-.148.661-1.256-1.516-.8-.661,1.256Z" transform="translate(-273.015 -387.684)" fill="#bd7020"/>
      <rect id="Rectangle_20" data-name="Rectangle 20" width="3.16" height="0.317" transform="matrix(0.536, -0.844, 0.844, 0.536, 12.844, 51.381)" fill="#bd7020"/>
      <rect id="Rectangle_21" data-name="Rectangle 21" width="3.161" height="0.317" transform="translate(10.763 49.905) rotate(-52.351)" fill="#bd7020"/>
      <path id="Path_44" data-name="Path 44" d="M282.383,436.009l2.132-2.276.231.216-1.7,1.818,2.513-1.057.168.157-.886,2.572,1.7-1.811.231.216-2.132,2.277-.246-.229.968-2.8-2.726,1.147Z" transform="translate(-274.634 -388.83)" fill="#bd7020"/>
      <path id="Path_45" data-name="Path 45" d="M280.745,434.024l2.45-1.994.2.245-1.147.933,1.081,1.329,1.147-.933.2.246-2.451,1.994-.2-.246,1.1-.9-1.081-1.329-1.1.9Z" transform="translate(-275.218 -389.437)" fill="#bd7020"/>
      <path id="Path_46" data-name="Path 46" d="M280.6,433.3l.989-.643-.654-1,.22-.142.654,1,1-.654-.728-1.116.221-.144.9,1.383-2.652,1.724-.9-1.382.22-.144Z" transform="translate(-275.608 -389.947)" fill="#bd7020"/>
      <path id="Path_47" data-name="Path 47" d="M281.329,428.674l.144.282L279.9,431.72l2.368-1.206.144.282-2.816,1.432-.144-.282,1.572-2.762-2.365,1.2-.144-.282Z" transform="translate(-276.014 -390.633)" fill="#bd7020"/>
      <path id="Path_48" data-name="Path 48" d="M277.681,427.636l2.163.273,1.152-.431.111.3-1.152.43-1.45,1.633-.126-.334,1.249-1.345-1.823-.191Z" transform="translate(-276.31 -391.059)" fill="#bd7020"/>
      <path id="Path_49" data-name="Path 49" d="M277.588,427.491l1.929-.487a.949.949,0,0,0,.62-.389.824.824,0,0,0,.071-.65.813.813,0,0,0-.366-.534.972.972,0,0,0-.73-.042l-1.929.487-.077-.307,1.923-.486a1.193,1.193,0,0,1,.955.088,1.287,1.287,0,0,1,.406,1.609,1.19,1.19,0,0,1-.8.53l-1.925.486Z" transform="translate(-276.515 -391.934)" fill="#bd7020"/>
      <path id="Path_50" data-name="Path 50" d="M278.557,423.716a.5.5,0,0,1-.35.191.522.522,0,1,1,.35-.191" transform="translate(-276.328 -392.702)" fill="#bd7020"/>
      <path id="Path_51" data-name="Path 51" d="M279.916,419.659l-.011.316-2.722,1.648,2.656.1-.011.316-3.158-.119.012-.316,2.717-1.648-2.652-.1.012-.316Z" transform="translate(-276.67 -393.887)" fill="#bd7020"/>
      <path id="Path_52" data-name="Path 52" d="M277.136,417.271l1.759,1.289,1.215.182-.047.313-1.215-.183-2.059.724.056-.354,1.746-.57-1.5-1.052Z" transform="translate(-276.628 -394.696)" fill="#bd7020"/>
      <path id="Path_53" data-name="Path 53" d="M279.885,415.979l-.368,1.392.655.458-.085.324-2.721-1.912.091-.346,3.309-.312-.085.324Zm-.278.024-1.812.167,1.492,1.04Z" transform="translate(-276.422 -395.298)" fill="#bd7020"/>
      <path id="Path_54" data-name="Path 54" d="M278.5,413.165l.244.094-.312.819,2.707,1.032-.111.3-2.709-1.032-.313.823-.246-.094Z" transform="translate(-276.282 -396.159)" fill="#bd7020"/>
      <path id="Path_55" data-name="Path 55" d="M279.605,411.087l2.813,1.438-.144.282-1.317-.673-.779,1.525,1.316.674-.144.281-2.813-1.438.144-.282,1.264.647.779-1.526-1.263-.646Z" transform="translate(-276.004 -396.9)" fill="#bd7020"/>
      <rect id="Rectangle_22" data-name="Rectangle 22" width="0.316" height="3.158" transform="translate(4.104 13.382) rotate(-58.25)" fill="#bd7020"/>
      <rect id="Rectangle_23" data-name="Rectangle 23" width="0.317" height="3.161" transform="translate(5.534 11.264) rotate(-53.004)" fill="#bd7020"/>
      <path id="Path_56" data-name="Path 56" d="M283.421,406.5l2.3,2.108-.213.233-1.836-1.682,1.086,2.5-.156.17-2.581-.856,1.828,1.674-.214.233-2.3-2.108.226-.247,2.808.936-1.179-2.717Z" transform="translate(-275.007 -398.534)" fill="#bd7020"/>
      <path id="Path_57" data-name="Path 57" d="M285.243,404.841l2.021,2.429-.243.2-.947-1.137-1.317,1.1.947,1.137-.244.2-2.02-2.428.243-.2.907,1.091,1.317-1.1L285,405.044Z" transform="translate(-274.258 -399.125)" fill="#bd7020"/>
      <path id="Path_58" data-name="Path 58" d="M285.778,404.689l.655.982,1-.666.145.218-1,.667.667,1,1.109-.741.145.218-1.373.915-1.756-2.631,1.373-.916.145.218Z" transform="translate(-273.569 -399.52)" fill="#bd7020"/>
      <path id="Path_59" data-name="Path 59" d="M290.528,405.368l-.278.146-2.782-1.544,1.232,2.355-.278.146-1.465-2.8.279-.146,2.782,1.541-1.23-2.352.278-.146Z" transform="translate(-273.004 -399.935)" fill="#bd7020"/>
      <path id="Path_60" data-name="Path 60" d="M291.213,401.711l-.247,2.166.445,1.146-.294.114-.446-1.146-1.648-1.431.334-.129,1.359,1.233.171-1.826Z" transform="translate(-272.268 -400.241)" fill="#bd7020"/>
      <path id="Path_61" data-name="Path 61" d="M291.467,401.616l.509,1.923a.952.952,0,0,0,.393.616.826.826,0,0,0,.651.061.812.812,0,0,0,.53-.372.968.968,0,0,0,.033-.731l-.507-1.922.305-.081.507,1.919a1.191,1.191,0,0,1-.076.955,1.288,1.288,0,0,1-1.6.424,1.186,1.186,0,0,1-.539-.792l-.509-1.919Z" transform="translate(-271.507 -400.455)" fill="#bd7020"/>
      <path id="Path_62" data-name="Path 62" d="M294.8,402.54a.494.494,0,0,1-.2-.349.522.522,0,1,1,.2.349" transform="translate(-270.281 -400.277)" fill="#bd7020"/>
      <path id="Path_63" data-name="Path 63" d="M299.245,403.85l-.316-.008-1.678-2.7-.071,2.656-.316-.008.084-3.159.316.009,1.679,2.7.069-2.653.316.008Z" transform="translate(-269.474 -400.627)" fill="#bd7020"/>
      <path id="Path_64" data-name="Path 64" d="M301.564,401.044l-1.268,1.773-.167,1.218-.313-.043.167-1.218-.746-2.052.354.049.59,1.739,1.035-1.514Z" transform="translate(-268.628 -400.594)" fill="#bd7020"/>
      <path id="Path_65" data-name="Path 65" d="M302.941,403.781l-1.39-.351-.452.659-.324-.081,1.881-2.742.346.087.35,3.305-.324-.081Zm-.027-.278-.187-1.809-1.023,1.5Z" transform="translate(-268.08 -400.4)" fill="#bd7020"/>
      <path id="Path_66" data-name="Path 66" d="M305.656,402.358l-.091.247-.823-.3-1,2.718-.3-.111,1-2.718-.827-.305.091-.245Z" transform="translate(-267.129 -400.266)" fill="#bd7020"/>
      <path id="Path_67" data-name="Path 67" d="M308.083,403.441l-1.405,2.829-.284-.141.658-1.324-1.534-.762-.658,1.324-.284-.141,1.407-2.828.282.14-.631,1.271,1.534.762.631-1.271Z" transform="translate(-266.725 -399.996)" fill="#bd7020"/>
      <rect id="Rectangle_24" data-name="Rectangle 24" width="3.16" height="0.317" transform="matrix(0.517, -0.856, 0.856, 0.517, 40.536, 6.643)" fill="#bd7020"/>
      <rect id="Rectangle_25" data-name="Rectangle 25" width="3.159" height="0.317" transform="matrix(0.593, -0.805, 0.805, 0.593, 42.427, 7.888)" fill="#bd7020"/>
      <path id="Path_68" data-name="Path 68" d="M312.941,407.206l-2.081,2.323-.236-.212,1.66-1.854-2.49,1.112-.172-.153.827-2.589-1.656,1.849-.235-.212,2.079-2.323.25.222-.9,2.818,2.7-1.209Z" transform="translate(-265.307 -399.016)" fill="#bd7020"/>
      <path id="Path_69" data-name="Path 69" d="M314.5,409.007l-2.406,2.049-.2-.241,1.124-.958-1.112-1.3-1.124.959-.206-.241,2.408-2.047.206.24-1.081.921,1.112,1.3,1.081-.92Z" transform="translate(-264.589 -398.277)" fill="#bd7020"/>
      <path id="Path_70" data-name="Path 70" d="M314.559,409.548l-.973.667.675.989-.217.148-.675-.989-.989.677.753,1.1-.217.148-.93-1.362,2.611-1.786.932,1.362-.217.148Z" transform="translate(-264.085 -397.594)" fill="#bd7020"/>
      <path id="Path_71" data-name="Path 71" d="M314.03,414.3l-.151-.278,1.514-2.8-2.341,1.259-.149-.279,2.782-1.5.149.278-1.511,2.8,2.337-1.257.149.278Z" transform="translate(-263.759 -397.034)" fill="#bd7020"/>
      <path id="Path_72" data-name="Path 72" d="M317.566,414.946l-2.169-.222-1.142.457-.117-.294,1.141-.457,1.413-1.666.133.334-1.218,1.374,1.827.151Z" transform="translate(-263.318 -396.302)" fill="#bd7020"/>
      <path id="Path_73" data-name="Path 73" d="M317.666,415.2l-1.917.53a.952.952,0,0,0-.612.4.938.938,0,0,0,.321,1.176.962.962,0,0,0,.731.026l1.918-.532.084.305-1.912.53a1.189,1.189,0,0,1-.956-.066,1.286,1.286,0,0,1-.445-1.6,1.191,1.191,0,0,1,.785-.548l1.912-.53Z" transform="translate(-263.096 -395.544)" fill="#bd7020"/>
      <path id="Path_74" data-name="Path 74" d="M316.157,418.54a.494.494,0,0,1,.345-.2.521.521,0,1,1-.345.2" transform="translate(-262.638 -394.316)" fill="#bd7020"/>
    </g>
  </g>
</svg>
